<svg width="1280" height="920" viewBox="0 0 1280 920" fill="none" xmlns="http://www.w3.org/2000/svg">
<g id="timestamp-17">
<rect id="series-0" x="40" y="40" width="1200" height="834" fill="#D9D9D9"/>
<rect id="series-14" x="284" y="8" width="114" height="117" fill="#9FD40B"/>
<rect id="series-13" x="398" y="724" width="182" height="116" fill="#7D003E"/>
<rect id="series-12" x="1074" y="522" width="179" height="113" fill="#006BED"/>
<rect id="series-11" x="903" y="125" width="182" height="113" fill="#4C0C5D"/>
<rect id="series-9" x="284" y="125" width="114" height="182" fill="#BA8BC6"/>
<rect id="series-8" x="104" y="193" width="180" height="114" fill="#8995E2"/>
<rect id="series-7" x="104" y="79" width="180" height="114" fill="#9A028D"/>
<rect id="series-6" x="97" y="574" width="301" height="190" fill="#0D6852"/>
<rect id="series-5" x="790" y="238" width="398" height="284" fill="#EEF3A0"/>
<rect id="series-4" x="40" y="307" width="358" height="267" fill="#AB6DA0"/>
<rect id="series-3" x="398" y="424" width="392" height="300" fill="#7CA7AE"/>
<rect id="series-2" x="790" y="522" width="284" height="398" fill="#B2BD12"/>
<rect id="series-1" x="398" y="125" width="392" height="299" fill="#1ACBEA"/>
<rect id="series-10" x="790" y="238" width="182" height="113" transform="rotate(-90 790 238)" fill="#2CA018"/>
</g>
</svg>
